<?xml version="1.0" ?><svg height="64" viewBox="0 0 64 64" width="64" xmlns="http://www.w3.org/2000/svg"><title/><g><path d="M50.447,30.991l-2.071-2.07L46.859,27.4l-.545-.545a1.426,1.426,0,0,1-.417-1.008V19.53A1.427,1.427,0,0,0,44.47,18.1H38.149a1.426,1.426,0,0,1-1.008-.417l-4.132-4.133a1.427,1.427,0,0,0-2.018,0l-3.423,3.423-.709.71a1.452,1.452,0,0,1-.188.154,1.427,1.427,0,0,1-.82.263H19.53A1.427,1.427,0,0,0,18.1,19.53v6.321a1.42,1.42,0,0,1-.313.881,1.4,1.4,0,0,1-.1.127l-3.28,3.279-.853.853a1.427,1.427,0,0,0,0,2.018l4.133,4.132a1.426,1.426,0,0,1,.417,1.008V44.47A1.427,1.427,0,0,0,19.53,45.9h6.321a1.426,1.426,0,0,1,1.008.417l4.132,4.133a1.427,1.427,0,0,0,2.018,0l1.68-1.681,2.452-2.452a1.426,1.426,0,0,1,1.008-.417H44.47A1.445,1.445,0,0,0,45.9,44.47V38.149a1.426,1.426,0,0,1,.417-1.008l4.133-4.132A1.427,1.427,0,0,0,50.447,30.991Z" fill="#e6f4e9"/><g><path d="M30.991,50.447l-4.132-4.133a1.426,1.426,0,0,0-1.008-.417H19.53A1.427,1.427,0,0,1,18.1,44.47V38.149a1.426,1.426,0,0,0-.417-1.008l-4.133-4.132a1.427,1.427,0,0,1,0-2.018l.853-.853,3.28-3.279a1.4,1.4,0,0,0,.1-.127,1.42,1.42,0,0,0,.313-.881V19.53A1.427,1.427,0,0,1,19.53,18.1h6.321a1.427,1.427,0,0,0,.82-.263,1.452,1.452,0,0,0,.188-.154l.709-.71,3.423-3.423A1.425,1.425,0,0,1,32,13.136V6.425a1.925,1.925,0,0,0-1.367.567l-5.6,5.6a2.02,2.02,0,0,1-1.367.566H15.094a1.934,1.934,0,0,0-1.934,1.934v8.569a1.927,1.927,0,0,1-.425,1.2,1.791,1.791,0,0,1-.141.172l-5.6,5.6a1.931,1.931,0,0,0,0,2.734l5.6,5.6a1.934,1.934,0,0,1,.566,1.367v8.569a1.934,1.934,0,0,0,1.934,1.934h8.569a1.934,1.934,0,0,1,1.367.566l5.6,5.6A1.925,1.925,0,0,0,32,57.575V50.864A1.425,1.425,0,0,1,30.991,50.447Z" fill="#2aab48"/><path d="M38.97,51.406a1.934,1.934,0,0,1,1.367-.566h8.569a1.957,1.957,0,0,0,1.934-1.934V40.337a1.934,1.934,0,0,1,.566-1.367l5.6-5.6a1.931,1.931,0,0,0,0-2.734L54.2,27.826l-2.8-2.8a1.934,1.934,0,0,1-.566-1.367V15.094a1.934,1.934,0,0,0-1.934-1.934H40.337a1.934,1.934,0,0,1-1.367-.566l-5.6-5.6A1.925,1.925,0,0,0,32,6.425v6.711a1.425,1.425,0,0,1,1.009.417l4.132,4.133a1.426,1.426,0,0,0,1.008.417H44.47A1.427,1.427,0,0,1,45.9,19.53v6.321a1.426,1.426,0,0,0,.417,1.008l.545.545,1.517,1.517,2.071,2.07a1.427,1.427,0,0,1,0,2.018l-4.133,4.132a1.426,1.426,0,0,0-.417,1.008V44.47A1.445,1.445,0,0,1,44.47,45.9H38.149a1.426,1.426,0,0,0-1.008.417l-2.452,2.452-1.68,1.681A1.425,1.425,0,0,1,32,50.864v6.711a1.925,1.925,0,0,0,1.367-.567Z" fill="#5fc076"/><path d="M27.568,16.976l-.709.71a1.452,1.452,0,0,1-.188.154,1.427,1.427,0,0,1-.82.263H19.53A1.427,1.427,0,0,0,18.1,19.53v6.321a1.42,1.42,0,0,1-.313.881,1.4,1.4,0,0,1-.1.127l-3.28,3.279-.853.853a1.427,1.427,0,0,0,0,2.018l4.133,4.132a1.426,1.426,0,0,1,.417,1.008V44.47A1.427,1.427,0,0,0,19.53,45.9h6.321a1.426,1.426,0,0,1,1.008.417l4.132,4.133A1.425,1.425,0,0,0,32,50.864V13.136a1.425,1.425,0,0,0-1.009.417Z" fill="#caead1"/></g><path d="M51.406,38.97l5.6-5.6a1.931,1.931,0,0,0,0-2.734l-5.6-5.6a1.934,1.934,0,0,1-.566-1.367V15.094a1.934,1.934,0,0,0-1.934-1.934H40.337a1.934,1.934,0,0,1-1.367-.566l-5.6-5.6a1.931,1.931,0,0,0-2.734,0l-5.6,5.6a1.934,1.934,0,0,1-1.367.566H15.094a1.934,1.934,0,0,0-1.934,1.934v8.569a1.934,1.934,0,0,1-.566,1.367l-5.6,5.6a1.931,1.931,0,0,0,0,2.734l5.6,5.6a1.934,1.934,0,0,1,.566,1.367v8.569a1.934,1.934,0,0,0,1.934,1.934h8.569a1.934,1.934,0,0,1,1.367.566l5.6,5.6a1.931,1.931,0,0,0,2.734,0l5.6-5.6a1.934,1.934,0,0,1,1.367-.566h8.569a1.934,1.934,0,0,0,1.934-1.934V40.337A1.934,1.934,0,0,1,51.406,38.97Z" fill="none" stroke="#231f20" stroke-linecap="round" stroke-linejoin="round" stroke-width="2"/><path d="M50.447,30.991l-2.071-2.07L46.859,27.4l-.545-.545a1.426,1.426,0,0,1-.417-1.008V19.53A1.427,1.427,0,0,0,44.47,18.1H38.149a1.426,1.426,0,0,1-1.008-.417l-4.132-4.133a1.427,1.427,0,0,0-2.018,0l-3.423,3.423-.709.71a1.452,1.452,0,0,1-.188.154,1.427,1.427,0,0,1-.82.263H19.53A1.427,1.427,0,0,0,18.1,19.53v6.321a1.42,1.42,0,0,1-.313.881,1.4,1.4,0,0,1-.1.127l-3.28,3.279-.853.853a1.427,1.427,0,0,0,0,2.018l4.133,4.132a1.426,1.426,0,0,1,.417,1.008V44.47A1.427,1.427,0,0,0,19.53,45.9h6.321a1.426,1.426,0,0,1,1.008.417l4.132,4.133a1.427,1.427,0,0,0,2.018,0l1.68-1.681,2.452-2.452a1.426,1.426,0,0,1,1.008-.417H44.47A1.445,1.445,0,0,0,45.9,44.47V38.149a1.426,1.426,0,0,1,.417-1.008l4.133-4.132A1.427,1.427,0,0,0,50.447,30.991Z" fill="none" stroke="#231f20" stroke-linecap="round" stroke-linejoin="round" stroke-width="2"/><g><path d="M31.975,27.017a3.671,3.671,0,0,1,7.341,0Z" fill="#efa23c"/><path d="M34.96,24.325a3.657,3.657,0,0,0-2.617,1.1,3.652,3.652,0,0,0-.368,1.593h6.52A3.67,3.67,0,0,0,34.96,24.325Z" fill="#ffb85a"/><path d="M31.975,27.017a3.671,3.671,0,0,1,7.341,0Z" fill="none" stroke="#231f20" stroke-linecap="round" stroke-linejoin="round" stroke-width="2"/><rect fill="#e1c78f" height="11.601" width="4.894" x="33.199" y="27.017"/><rect fill="#ffeab5" height="11.601" width="3.059" x="33.199" y="27.017"/><rect fill="none" height="11.601" stroke="#231f20" stroke-linecap="round" stroke-linejoin="round" stroke-width="2" width="4.894" x="33.199" y="27.017"/><line fill="none" stroke="#231f20" stroke-linecap="round" stroke-linejoin="round" stroke-width="2" x1="35.646" x2="35.646" y1="23.347" y2="21.259"/><g><path d="M29.151,33.334a9.464,9.464,0,0,1-1.207-8.509,9.478,9.478,0,1,0,13.28,11.49A9.477,9.477,0,0,1,29.151,33.334Z" fill="#ffef5c"/><g><path d="M26.616,35.762a9.469,9.469,0,0,1-.854-9.4A9.476,9.476,0,0,0,37.71,41.016a9.361,9.361,0,0,0,3.123-3.783,9.378,9.378,0,0,1-14.217-1.471Z" fill="#efdc56"/><path d="M29.151,33.334a9.464,9.464,0,0,1-1.207-8.509,8.546,8.546,0,0,0-2.182,1.54A9.449,9.449,0,0,0,40.833,37.233a9.847,9.847,0,0,0,.392-.918A9.478,9.478,0,0,1,29.151,33.334Z" fill="#ffef5c"/></g><path d="M29.151,33.334a9.464,9.464,0,0,1-1.207-8.509,9.478,9.478,0,1,0,13.28,11.49A9.477,9.477,0,0,1,29.151,33.334Z" fill="none" stroke="#231f20" stroke-linecap="round" stroke-linejoin="round" stroke-width="2"/></g></g></g></svg>